<?xml version="1.0" encoding="utf-8"?>
<!-- Generator: Adobe Illustrator 24.3.0, SVG Export Plug-In . SVG Version: 6.00 Build 0)  -->
<svg version="1.1"
	 id="svg6" inkscape:export-filename="C:\Users\saver\Documents\GitHub\Sav22999\common-voice-android\Images\icon512.png" inkscape:export-xdpi="1638.4" inkscape:export-ydpi="1638.4" inkscape:version="0.92.4 (5da689c313, 2019-01-14)" sodipodi:docname="icon.svg" xmlns:cc="http://creativecommons.org/ns#" xmlns:dc="http://purl.org/dc/elements/1.1/" xmlns:inkscape="http://www.inkscape.org/namespaces/inkscape" xmlns:rdf="http://www.w3.org/1999/02/22-rdf-syntax-ns#" xmlns:sodipodi="http://sodipodi.sourceforge.net/DTD/sodipodi-0.dtd" xmlns:svg="http://www.w3.org/2000/svg"
	 xmlns="http://www.w3.org/2000/svg" xmlns:xlink="http://www.w3.org/1999/xlink" x="0px" y="0px" viewBox="0 0 30 30"
	 style="enable-background:new 0 0 30 30;" xml:space="preserve">
<style type="text/css">
	.st0{fill:#DDDDDD;}
	.st1{enable-background:new    ;}
	.st2{fill:#039BE5;}
</style>
<sodipodi:namedview  bordercolor="#666666" borderopacity="1" gridtolerance="10" guidetolerance="10" id="namedview8" inkscape:current-layer="svg6" inkscape:cx="18.517402" inkscape:cy="14.605599" inkscape:pageopacity="0" inkscape:pageshadow="2" inkscape:window-height="801" inkscape:window-maximized="1" inkscape:window-width="1536" inkscape:window-x="-8" inkscape:window-y="-8" inkscape:zoom="11.125147" objecttolerance="10" pagecolor="#ffffff" showgrid="false">
	</sodipodi:namedview>
<path id="rect2475" d="M3,0h24c1.7,0,3,1.3,3,3v24c0,1.7-1.3,3-3,3H3c-1.7,0-3-1.3-3-3V3C0,1.3,1.3,0,3,0z"/>
<path id="rect2475-2" class="st0" d="M3,0h24c1.7,0,3,1.3,3,3v24c0,1.7-1.3,3-3,3H3c-1.7,0-3-1.3-3-3V3C0,1.3,1.3,0,3,0z"/>
<g class="st1">
	<path class="st2" d="M16.6,23.4h-1c0.3-1.5,1-5.1,2.1-10.6l0.6-2.9c-1,1.2-2.2,2.8-3.6,4.9s-3.3,4.9-5.8,8.7H6.8
		c0.5-0.9,1-2.3,1.6-4.2c1.1-3.6,1.7-6.4,1.7-8.4c0-2.4-0.7-3.6-2.2-3.6c-0.6,0-1.2,0.2-1.7,0.5S5.2,8.5,4.9,9s-0.6,1.1-0.8,1.7
		c-0.4,1.2-0.6,2.3-0.6,3.5s0.2,2.3,0.5,3.4s0.9,1.9,1.7,2.4l-0.6,0.5c-0.8-0.7-1.4-1.6-1.8-2.8s-0.6-2.2-0.6-3.1s0.1-1.8,0.2-2.4
		s0.3-1.4,0.6-2s0.6-1.3,1-1.8S5.4,7.4,6,7s1.3-0.5,2-0.5s1.4,0.1,2,0.4s1,0.6,1.3,1.1c0.6,0.9,0.9,2,0.9,3.5c0,2.3-0.8,5.4-2.5,9.3
		c2.6-4.3,4.6-7.5,6.1-9.4c1.3-1.8,2.6-3.1,3.7-4l0.8,0.4l-2.1,13.7c1.7-1.1,3.1-2.6,4.1-4.2s1.8-3.4,2.1-5.3
		c-0.8-0.4-1.4-0.8-2-1.4s-0.8-1.2-0.8-1.8s0.2-1.1,0.5-1.5s0.7-0.6,1.2-0.6s0.9,0.1,1.1,0.3s0.5,0.4,0.7,0.7
		c0.3,0.6,0.5,1.2,0.5,1.9s-0.1,1.4-0.2,2.2c0.6,0.3,1.2,0.5,1.8,0.6l-0.2,0.6c-1-0.2-1.6-0.4-1.8-0.5c-0.5,2.3-1.5,4.5-2.9,6.4
		S19,22.2,16.6,23.4z M22.9,8.7c0.1,0.9,0.6,1.7,1.7,2.4c0.1-0.6,0.2-1.1,0.2-1.5s0-0.7,0-0.8s0-0.3-0.1-0.5
		c-0.1-0.4-0.4-0.7-0.8-0.7c-0.3,0-0.5,0.1-0.7,0.3S22.9,8.4,22.9,8.7L22.9,8.7z"/>
</g>
</svg>
