<?xml version="1.0" encoding="utf-8"?>
<!-- Generator: Adobe Illustrator 24.3.0, SVG Export Plug-In . SVG Version: 6.00 Build 0)  -->
<svg version="1.1"
	 id="svg6" inkscape:export-filename="C:\Users\saver\Documents\GitHub\Sav22999\common-voice-android\Images\icon512.png" inkscape:export-xdpi="1638.4" inkscape:export-ydpi="1638.4" inkscape:version="0.92.4 (5da689c313, 2019-01-14)" sodipodi:docname="icon.svg" xmlns:cc="http://creativecommons.org/ns#" xmlns:dc="http://purl.org/dc/elements/1.1/" xmlns:inkscape="http://www.inkscape.org/namespaces/inkscape" xmlns:rdf="http://www.w3.org/1999/02/22-rdf-syntax-ns#" xmlns:sodipodi="http://sodipodi.sourceforge.net/DTD/sodipodi-0.dtd" xmlns:svg="http://www.w3.org/2000/svg"
	 xmlns="http://www.w3.org/2000/svg" xmlns:xlink="http://www.w3.org/1999/xlink" x="0px" y="0px" viewBox="0 0 30 30"
	 style="enable-background:new 0 0 30 30;" xml:space="preserve">
<style type="text/css">
	.st0{fill:#DDDDDD;}
	.st1{enable-background:new    ;}
	.st2{fill:#039BE5;}
</style>
<sodipodi:namedview  bordercolor="#666666" borderopacity="1" gridtolerance="10" guidetolerance="10" id="namedview8" inkscape:current-layer="svg6" inkscape:cx="18.517402" inkscape:cy="14.605599" inkscape:pageopacity="0" inkscape:pageshadow="2" inkscape:window-height="801" inkscape:window-maximized="1" inkscape:window-width="1536" inkscape:window-x="-8" inkscape:window-y="-8" inkscape:zoom="11.125147" objecttolerance="10" pagecolor="#ffffff" showgrid="false">
	</sodipodi:namedview>
<path id="rect2475" d="M3,0h24c1.7,0,3,1.3,3,3v24c0,1.7-1.3,3-3,3H3c-1.7,0-3-1.3-3-3V3C0,1.3,1.3,0,3,0z"/>
<path id="rect2475-2" class="st0" d="M3,0h24c1.7,0,3,1.3,3,3v24c0,1.7-1.3,3-3,3H3c-1.7,0-3-1.3-3-3V3C0,1.3,1.3,0,3,0z"/>
<g class="st1">
	<path class="st2" d="M16,20.3h-0.6c0.2-1,0.6-3.2,1.3-6.7l0.3-1.8c-0.6,0.8-1.4,1.8-2.2,3.1s-2.1,3.1-3.6,5.4H9.8
		c0.3-0.6,0.6-1.5,1-2.6c0.7-2.3,1-4,1-5.3c0-1.5-0.5-2.2-1.4-2.2c-0.4,0-0.8,0.1-1.1,0.3c-0.3,0.2-0.6,0.5-0.8,0.8
		s-0.4,0.7-0.5,1.1c-0.2,0.7-0.4,1.5-0.4,2.2c0,0.7,0.1,1.5,0.3,2.1c0.2,0.7,0.6,1.2,1.1,1.5l-0.3,0.3c-0.5-0.4-0.9-1-1.1-1.7
		c-0.2-0.7-0.4-1.4-0.4-2c0-0.6,0-1.1,0.1-1.5s0.2-0.8,0.4-1.3c0.2-0.4,0.4-0.8,0.6-1.1C8.7,10.5,9,10.2,9.4,10
		c0.4-0.2,0.8-0.3,1.3-0.3s0.9,0.1,1.2,0.2c0.3,0.2,0.6,0.4,0.8,0.7c0.4,0.5,0.6,1.3,0.6,2.2c0,1.4-0.5,3.4-1.5,5.8
		c1.6-2.7,2.9-4.7,3.8-5.9c0.8-1.1,1.6-1.9,2.3-2.5l0.5,0.2L17,19c1.1-0.7,1.9-1.6,2.6-2.6c0.7-1,1.1-2.1,1.3-3.3
		c-0.5-0.2-0.9-0.5-1.2-0.9s-0.5-0.8-0.5-1.2c0-0.4,0.1-0.7,0.3-0.9c0.2-0.2,0.5-0.4,0.8-0.4c0.3,0,0.5,0.1,0.7,0.2
		c0.2,0.1,0.3,0.3,0.4,0.4c0.2,0.4,0.3,0.8,0.3,1.2s0,0.9-0.1,1.3c0.4,0.2,0.7,0.3,1.1,0.4l-0.1,0.3c-0.6-0.2-1-0.3-1.1-0.3
		c-0.3,1.5-0.9,2.8-1.8,4C18.7,18.5,17.5,19.5,16,20.3z M20,11.1c0.1,0.6,0.4,1.1,1,1.5c0.1-0.4,0.1-0.7,0.1-0.9s0-0.4,0-0.5
		c0-0.1,0-0.2-0.1-0.3c-0.1-0.3-0.2-0.4-0.5-0.4c-0.2,0-0.3,0.1-0.4,0.2C20,10.7,20,10.9,20,11.1L20,11.1z"/>
</g>
</svg>
