<svg xmlns="http://www.w3.org/2000/svg" xmlns:xlink="http://www.w3.org/1999/xlink" viewBox="0 0 24 24"><path d="M19 2C17.992188 2 17.167969 2.746094 17.03125 3.71875C12.265625 2.253906 10.289063 7.675781 8.8125 8.8125C7.472656 9.84375 3.589844 9.632813 3.125 12C2.515625 13.710938 4.328125 15.984375 8.03125 18.3125C8.191406 19.816406 9.449219 21 11 21C11.523438 21 12.011719 20.859375 12.4375 20.625C14.484375 21.464844 16.472656 22 17.6875 22C18.691406 22 19.6875 21.546875 20 21C21.648438 19.238281 19.761719 16.097656 19.8125 14.40625C19.863281 12.753906 22.238281 8.515625 20.09375 5.6875C20.644531 5.332031 21 4.707031 21 4C21 2.894531 20.105469 2 19 2 Z M 5.46875 12.75C6.308594 12.570313 8.78125 13.511719 11.59375 15.0625C11.398438 15.023438 11.207031 15 11 15C9.980469 15 9.074219 15.503906 8.53125 16.28125C6.664063 15.003906 5.367188 13.847656 5.1875 13.21875C5.179688 13.203125 5.164063 13.171875 5.15625 13.15625C5.164063 13.15625 5.179688 13.15625 5.1875 13.15625C5.171875 13.066406 5.152344 13 5.1875 12.9375C5.234375 12.855469 5.339844 12.777344 5.46875 12.75 Z M 13.25 16.03125C16.246094 17.882813 18.308594 19.722656 17.96875 20.3125C17.699219 20.78125 15.976563 20.300781 13.71875 19.25C13.894531 18.867188 14 18.449219 14 18C14 17.242188 13.710938 16.558594 13.25 16.03125Z"/></svg>